<?xml version="1.0" encoding="utf-8"?>
<!-- Generator: Adobe Illustrator 23.0.2, SVG Export Plug-In . SVG Version: 6.00 Build 0)  -->
<svg version="1.1" id="Layer_1" xmlns="http://www.w3.org/2000/svg" xmlns:xlink="http://www.w3.org/1999/xlink" x="0px" y="0px"
	 viewBox="0 0 430 147" style="enable-background:new 0 0 430 147;" xml:space="preserve">
<style type="text/css">
	.st0{fill:#E7E7E7;}
	.st1{fill:#424143;}
	.st2{opacity:0.4;fill:#424143;}
	.st3{fill:#FEE0CC;}
	.st4{opacity:0.3;}
	.st5{fill:#653A15;}
	.st6{opacity:0.4;fill:#653A15;}
	.st7{fill:#7E451D;}
	.st8{fill:#EFECE7;}
	.st9{opacity:0.4;fill:#EFECE7;}
	.st10{opacity:0.5;fill:#FFFFFF;}
	.st11{fill:#F1593D;}
	.st12{fill:#B3A97E;}
	.st13{opacity:0.5;fill:#B3A97E;}
	.st14{opacity:0.3;fill:#AB1E37;}
	.st15{opacity:0.4;fill:#AB1E37;}
	.st16{fill:#FDC994;}
	.st17{opacity:0.3;fill:#F3C092;}
	.st18{fill:#FAD8B6;}
	.st19{opacity:0.3;fill:#FAD8B6;}
	.st20{opacity:0.3;fill:#653A15;}
	.st21{opacity:0.6;fill:#FAD8B6;}
	.st22{fill:#F1ECE7;}
	.st23{fill:#F9F8F4;}
	.st24{opacity:0.7;}
	.st25{fill:#DDCFC5;}
	.st26{fill:#FFFFFF;}
	.st27{opacity:0.3;fill:#EFECE7;}
	.st28{fill:#231F20;}
	.st29{fill:#1D2C38;}
</style>
<g>
	<path class="st0" d="M119.43,125.39c0,1.05-18.22,1.9-40.7,1.9c-22.48,0-40.7-0.85-40.7-1.9c0-1.05,18.22-1.9,40.7-1.9
		C101.21,123.49,119.43,124.34,119.43,125.39z"/>
	<g>
		<path class="st1" d="M74.97,112.68c0,0-1.03,0.24-2.42,0.33l0.28,4.42l1.16,0.36l0.47-0.82c0,0,2.82,1.91,4.89,1.69
			c2.08-0.22,1.33-1.04-0.82-2.03C76.38,115.63,74.95,115.03,74.97,112.68z"/>
		<path class="st2" d="M75.02,113.28C75.01,113.27,75.01,113.28,75.02,113.28c-0.01,0.01-1.6-0.25-1.5,1.16
			c0.09,1.41-0.68,2.52-0.2,2.35c0.48-0.17,1.04-0.35,1.03-0.56c-0.01-0.21,3.76,3.51,6.24,1.94c-0.04,0.24-0.41,0.42-1.22,0.5
			c-2.08,0.22-4.89-1.69-4.89-1.69L74,117.79l-1.16-0.36l-0.28-4.42c1.39-0.09,2.42-0.33,2.42-0.33
			C74.97,112.9,74.99,113.09,75.02,113.28z"/>
	</g>
	<g>
		<path class="st3" d="M78.36,77.59c0,0,3.61,1.92,3.77-1c0.04-0.73,1.8-0.18,0.79,1.95c0,0,1.37-0.37,2.07-0.63
			c0.7-0.27,1.2,0.39,0.69,0.86c-0.5,0.48-2.07,0.85-2.07,0.85s1.53,0.51,1.85,0.44c0.31-0.08,0.91,0.38,0.36,0.84
			c-0.55,0.47-2.25,0.04-2.25,0.04s1.51,1.05,1.94,1.18c0.43,0.13,0.07,1.08-0.7,0.73c-0.77-0.34-1.66-0.77-1.66-0.77
			s0.74,1.17,1.05,1.52c0.31,0.36-0.28,1.18-1.06,0.02c-0.78-1.15-2.25-2.28-5.39-2.62C77.77,80.99,77.17,79.47,78.36,77.59z"/>
		<g class="st4">
			<path class="st3" d="M81.22,81.59c0.76,0.54,1.29,1.18,1.61,1.6c0,0,0,0,0,0c-0.85-1-2.31-1.9-5.07-2.21c0,0-0.6-1.52,0.6-3.4
				c0,0,1.29,0.69,2.36,0.61v0c0,0-2.41,0.54-1.5,1.72C80.13,81.1,80.46,81.05,81.22,81.59z"/>
			<path class="st3" d="M84.29,83.87c-0.04,0.35-0.52,0.66-1.14-0.25c-0.03-0.04-0.06-0.09-0.1-0.13
				C83.42,83.92,83.95,84.43,84.29,83.87z"/>
		</g>
	</g>
	<g>
		<g>
			<path class="st1" d="M67.93,115.36c0,0,1.03,0.23,2.42,0.3l-0.22,4.42l-1.15,0.38l-0.48-0.81c0,0-2.79,1.95-4.87,1.76
				c-2.08-0.19-1.34-1.02,0.79-2.05C66.57,118.34,67.99,117.72,67.93,115.36z"/>
			<path class="st2" d="M67.9,115.96c0,0,0.01,0.01,0.01,0.01c0,0,1.58-0.28,1.51,1.13c-0.07,1.41,0.72,2.51,0.24,2.34
				c-0.49-0.16-1.04-0.34-1.03-0.55c0.01-0.21-3.71,3.57-6.21,2.03c0.04,0.24,0.42,0.41,1.22,0.49c2.08,0.19,4.87-1.76,4.87-1.76
				l0.48,0.81l1.15-0.38l0.22-4.42c-1.39-0.07-2.42-0.3-2.42-0.3C67.94,115.58,67.92,115.77,67.9,115.96z"/>
		</g>
		<g>
			<path class="st5" d="M64.96,93.88l-12.15,5.47c3.33,10.33,14.58,18.11,15.19,18.23c0.61,0.12,2.89-0.92,2.3-2.42
				c-0.57-1.45-4.46-8.79-5.2-11.42c-0.71-2.5,1.82-3.56,1.82-3.56s2.38-1.32,3.2,1.07c0.85,2.51,1.99,11.16,2.35,12.71
				c0.37,1.6,2.46,0.2,2.8-0.44c0.34-0.64,3.6-15.25,0.74-24.77L64.96,93.88z"/>
			<path class="st6" d="M66.92,100.19c0,0,2.38-1.32,3.2,1.07c0.85,2.51,1.99,11.16,2.35,12.71c0.37,1.6,2.46,0.2,2.8-0.44
				c0.34-0.64,3.6-15.25,0.74-24.77l-11.05,5.11l-12.15,5.47c0,0,3.73,3.5,14.95-2.27c5.88-3.02,6.93-6.17,7.12-2.99
				c0.21,3.41,0.3,15.31-0.2,17.78c-0.51,2.58-1.13,1.85-1.55,0.31c-2.94-10.69-0.99-15.48-3.36-14.31
				c-3.41,1.7-6.82,3.16-6.06,5.42c1.78,5.25,6.09,10.7,6.59,11.87c-0.57-1.45-4.46-8.79-5.2-11.42
				C64.39,101.25,66.92,100.19,66.92,100.19z"/>
			<path class="st7" d="M56.63,100.99c0,0,0.64,3.77,3.35,7.39c2.91,3.9,6.51,7.18,6.51,7.18S51.45,103.5,56.63,100.99z"/>
		</g>
		<g>
			<path class="st8" d="M65.73,68.75c0,0,6.16,5.89,10.7,6.83c4.54,0.94,4.02,0.8,4.07,2.01c0.04,1.21-0.31,5.63-3.58,4.75
				c-3.27-0.88-12.07-4.8-14.76-10.22C59.46,66.69,64.33,67.08,65.73,68.75z"/>
			<path class="st9" d="M80.26,76.55c-0.02,1.6-0.45,2.88-2.32,4.04c-1.88,1.15-7.99-2.14-12.78-6.28
				c-4.78-4.14-1.37-6.59-1.37-6.59c-1.73-0.32-3.5,0.64-1.64,4.41c2.69,5.42,11.5,9.35,14.76,10.22c3.27,0.88,3.62-3.54,3.58-4.75
				C80.47,77.04,80.56,76.77,80.26,76.55z"/>
			<path class="st10" d="M79.4,76.83c0,0-1.18,0.97-2.39,0.65c-1.2-0.32-6.47-1.64-10.19-6.33c0,0,0.16-0.6,1.56,0.7
				C69.79,73.15,75.7,76.58,79.4,76.83z"/>
		</g>
		<g>
			<g>
				<path class="st8" d="M64.36,69.54c0,0-7.15,3.21-9.87,4.44c-2.72,1.24-9.83,4.54-9.83,4.54s4.89,20.15,7.14,22.28
					c4.3,4.08,14.29-1.38,14.29-1.38s10.67-3.96,10.41-9.89C76.37,86.45,64.36,69.54,64.36,69.54z"/>
				<path class="st9" d="M66.09,99.42c0,0,10.67-3.96,10.41-9.89c-0.13-3.09-12.14-19.99-12.14-19.99s-7.15,3.21-9.87,4.44
					c-2.72,1.24-9.83,4.54-9.83,4.54s9.23,0.45,17.71-5.67c0,0,9.04,8.58,8.07,17.24c-0.98,8.65-10.96,12.34-17.36,11.59l0,0
					C57.81,103.94,66.09,99.42,66.09,99.42z"/>
			</g>
			<path class="st10" d="M47.07,83.01c0,0,4.36,16.29,8.2,17.64c0,0-3.08,0.33-4.67-4.18C49.01,91.97,47.07,83.01,47.07,83.01z"/>
		</g>
		<path class="st11" d="M44.25,77.28l19.4-8.98L65,70.45c0,0-8.11,7.11-20.07,9.16L44.25,77.28z"/>
		<g>
			<g>
				<path class="st12" d="M60.08,82.44c0.36,0.8,0.01,1.73-0.78,2.09c-0.79,0.36-1.73,0.01-2.09-0.78
					c-0.36-0.79-0.01-1.73,0.78-2.09C58.78,81.3,59.72,81.65,60.08,82.44z"/>
				<path class="st13" d="M58.67,81.52c0.36,0.15,0.67,0.43,0.84,0.81c0.36,0.79,0.01,1.73-0.78,2.09c-0.22,0.1-0.45,0.14-0.68,0.14
					c0.39,0.16,0.84,0.16,1.25-0.03c0.79-0.36,1.14-1.29,0.78-2.09C59.82,81.87,59.26,81.53,58.67,81.52z"/>
			</g>
			<g>
				<path class="st12" d="M62.13,86.94c0.36,0.8,0.01,1.73-0.78,2.09c-0.79,0.36-1.73,0.01-2.09-0.78
					c-0.36-0.79-0.01-1.73,0.78-2.09C60.84,85.8,61.77,86.15,62.13,86.94z"/>
				<path class="st13" d="M60.72,86.02c0.36,0.14,0.67,0.42,0.85,0.8c0.36,0.79,0.01,1.73-0.78,2.09c-0.22,0.1-0.45,0.14-0.68,0.14
					c0.39,0.16,0.84,0.16,1.25-0.03c0.79-0.37,1.14-1.3,0.78-2.09C61.87,86.37,61.31,86.03,60.72,86.02z"/>
			</g>
			<g>
				<path class="st12" d="M64.19,91.45c0.36,0.79,0.01,1.73-0.78,2.09c-0.79,0.36-1.73,0.01-2.09-0.78
					c-0.36-0.8-0.01-1.73,0.78-2.09C62.89,90.31,63.83,90.66,64.19,91.45z"/>
				<path class="st13" d="M62.78,90.53c0.36,0.15,0.67,0.42,0.84,0.81c0.36,0.79,0.01,1.73-0.78,2.08c-0.22,0.1-0.45,0.15-0.68,0.14
					c0.39,0.16,0.84,0.16,1.25-0.03c0.79-0.36,1.14-1.3,0.78-2.09C63.93,90.88,63.37,90.54,62.78,90.53z"/>
			</g>
		</g>
		<g>
			<g>
				<g>
					<path class="st11" d="M54.32,76.95c0,0-1.9-1.78-4.47,0.07c-1.99,1.42-2.67,3.32-5.03,3.34c0,0,3.06,3.15,7.53,1.3
						C55.84,80.21,55.39,77.87,54.32,76.95z"/>
					<path class="st14" d="M54.54,77.31c0,0-0.91-0.78-2.5,0.14c-1.58,0.92-2.44,1.89-1.79,1.69c0.65-0.2,1.7-0.57,1.82-0.62
						c0.12-0.05-0.77,1.38-2.96,2.2C49.11,80.72,55.89,79.86,54.54,77.31z"/>
					<path class="st14" d="M49.85,77.02c-1.52,1.09-2.28,2.45-3.61,3.04c0,0,0,0,0,0s2.01-0.53,3.64-2.35
						c1.52-1.71,3.7-0.87,3.39,0.76c-0.33,1.74-3.52,3.77-6.35,3.24c1.32,0.56,3.2,0.87,5.43-0.05c3.48-1.44,3.04-3.79,1.97-4.7
						C54.32,76.95,52.42,75.17,49.85,77.02z"/>
				</g>
				<g>
					<path class="st11" d="M56.84,75.8c0,0-0.1-2.6,2.98-3.33c2.38-0.57,4.25,0.16,5.82-1.61c0,0,0.38,4.38-3.96,6.54
						C58.31,79.09,56.83,77.21,56.84,75.8z"/>
					<path class="st14" d="M56.97,76.2c0,0,0.01-1.21,1.74-1.8c1.73-0.59,3.03-0.6,2.45-0.24c-0.58,0.36-1.54,0.91-1.65,0.97
						c-0.11,0.05,1.54,0.32,3.6-0.8C63.1,74.34,58.01,78.9,56.97,76.2z"/>
					<path class="st14" d="M59.82,72.47c1.82-0.44,3.34-0.11,4.66-0.73c0,0,0,0,0,0c0,0-1.72,1.17-4.16,1.21
						c-2.29,0.03-3.08,2.22-1.65,3.05c1.53,0.88,5.16-0.19,6.61-2.67c-0.45,1.37-1.44,2.99-3.6,4.07c-3.38,1.68-4.86-0.19-4.84-1.6
						C56.84,75.8,56.74,73.2,59.82,72.47z"/>
				</g>
			</g>
			<g>
				<path class="st11" d="M57.95,75.7c0.44,0.96-0.21,2.2-1.44,2.76c-1.23,0.56-2.59,0.24-3.03-0.73c-0.44-0.96,0.21-2.2,1.44-2.76
					C56.16,74.41,57.51,74.74,57.95,75.7z"/>
				<path class="st15" d="M56.16,74.7c0.3,0.15,0.53,0.37,0.67,0.67c0.38,0.83-0.18,1.88-1.23,2.37c-0.77,0.35-1.6,0.3-2.14-0.08
					c0.01,0.03,0.02,0.06,0.03,0.09c0.44,0.96,1.79,1.29,3.03,0.73c1.23-0.57,1.87-1.8,1.44-2.76C57.66,75.06,56.96,74.7,56.16,74.7
					z"/>
			</g>
		</g>
		<g>
			<g>
				<g>
					<g>
						<g>
							<path class="st16" d="M67.71,55.37c-0.3,2.06-1.83,3.54-3.42,3.31c-1.59-0.23-2.71-3.15-2.41-5.21
								c0.3-2.06,1.9-2.47,3.49-2.24C66.96,51.45,68.01,53.31,67.71,55.37z"/>
							<path class="st17" d="M66.06,52.21c0,0-0.84,0.09-0.91,0.9c-0.08,0.81,0.3,3.48,0.74,3.43c0.45-0.05,1-0.54,0.86-1.31
								c-0.14-0.77-0.55-1.29-0.82-1.03C65.66,54.46,65.28,52.6,66.06,52.21z"/>
						</g>
						<g>
							<path class="st16" d="M31.94,71.68c1.75,1.13,3.87,0.94,4.74-0.41c0.87-1.35-0.6-4.12-2.35-5.24
								c-1.75-1.12-3.12-0.19-3.98,1.17C29.47,68.55,30.18,70.56,31.94,71.68z"/>
							<path class="st17" d="M30.64,68.37c0,0,0.61-0.58,1.28-0.1c0.66,0.48,2.44,2.51,2.1,2.81c-0.33,0.3-1.06,0.41-1.56-0.2
								c-0.49-0.61-0.61-1.26-0.24-1.3C32.59,69.54,31.44,68.03,30.64,68.37z"/>
						</g>
					</g>
					<g>
						<path class="st18" d="M63.76,52.2c4.01,8.8,3.96,17.43-8.55,23.14c-11.56,5.27-19.06,0.08-23.07-8.72
							c-4.01-8.8-0.19-19.16,8.55-23.14C49.41,39.5,59.74,43.4,63.76,52.2z"/>
						<path class="st19" d="M46.21,77.45c2.67,0.05,5.67-0.59,9-2.11C67.72,69.63,67.77,61,63.76,52.2
							c-2.72-5.96-8.34-9.67-14.4-10.2c-0.73,1.28-0.01,3.56,7.04,7.29c0,0,8.21,1.03,6.99,13.34
							C62.16,74.92,51.5,76.74,46.21,77.45z"/>
					</g>
					<g>
						<path class="st5" d="M31.98,66.33c0,0-1.08-6.01,7.34-9.87c0,0-0.31,2.87-1.07,4.09c0,0,10.52-4.51,13.54-9.2
							c0,0,0.54,1.57-0.67,3.24c0,0,2.81-0.81,4.42-5.13c0,0,5.48-1.53,8.08,2.35c0,0-5.38-10.18-14.69-10.61
							c-9.3-0.43-17.53,7.71-18.65,12.48C29.03,58.94,31.98,66.33,31.98,66.33z"/>
						<path class="st20" d="M51.11,54.59c0,0,2.81-0.81,4.42-5.13c0,0,5.48-1.53,8.08,2.35c0,0-1.38-2.61-3.95-5.24
							c1.81,2.98-6.62-0.92-6.62-0.92c2.4,2.48-0.32,6.58-0.32,6.58c0.39-1.18-0.46-2.87-0.46-2.87c-1.15,3.37-11.8,8.69-11.8,8.69
							c1.01-5.8,9.02-9.75,9.02-9.75c-13.37,0.68-15.99,11.14-17,8.01c-1-3.12-0.48-6.17-0.12-6.69c-1.08,1.43-1.81,2.85-2.09,4.04
							c-1.23,5.25,1.71,12.65,1.71,12.65s-1.08-6.01,7.34-9.87c0,0-0.31,2.87-1.07,4.09c0,0,10.52-4.51,13.54-9.2
							C51.78,51.35,52.32,52.93,51.11,54.59z"/>
					</g>
					<g>
						<path class="st5" d="M51.76,58.15c0,0,1-3.38,5.04-2.58C56.81,55.56,52.75,53.08,51.76,58.15z"/>
						<path class="st5" d="M39.34,63.81c0,0,1-3.38,5.04-2.58C44.38,61.23,40.33,58.74,39.34,63.81z"/>
					</g>
					<g>
						<g>
							<path class="st5" d="M51.67,67.63c0,0-1.01-1.61-2.82-0.75c-1.28,0.61-2.59,1.94-3.05,3.11c-0.47,1.17-1.94,2.56-2.37,1.64
								c-0.42-0.92,0.42-1.43,0.42-1.43s-1.42,0.65-0.85,1.9c0.57,1.26,4.23,0.79,6.63-1.03C52.05,69.25,52.19,68.51,51.67,67.63z"
								/>
							<g class="st4">
								<path class="st5" d="M46.32,69.33l-0.13-0.08c-0.01,0.02-0.03,0.04-0.04,0.06C46.21,69.33,46.26,69.33,46.32,69.33z"/>
								<path class="st5" d="M49.64,71.07c2.41-1.81,2.55-2.56,2.02-3.44c0,0-1.01-1.61-2.82-0.75c-1.01,0.49-2.05,1.42-2.66,2.37
									c0.02-0.02,2.78-2.57,3.85-2.04c1.07,0.54,0.65,2.8-1.14,3.72c-1.79,0.92-4.94,2.48-5.89,1.16
									C43.59,73.35,47.24,72.88,49.64,71.07z"/>
							</g>
						</g>
						<g>
							<path class="st5" d="M51.71,67.61c0,0-0.55-1.82,1.28-2.62c1.3-0.56,3.16-0.68,4.35-0.27c1.19,0.42,3.21,0.21,2.79-0.71
								c-0.42-0.92-1.36-0.62-1.36-0.62s1.42-0.65,1.99,0.61c0.57,1.25-2.18,3.71-5.13,4.33C52.69,68.96,52.03,68.58,51.71,67.61z"
								/>
							<g class="st4">
								<path class="st5" d="M56.5,64.69l0.02-0.15c0.02,0,0.05,0,0.07,0.01C56.58,64.6,56.54,64.65,56.5,64.69z"/>
								<path class="st5" d="M55.63,68.34c-2.95,0.63-3.6,0.24-3.92-0.72c0,0-0.55-1.82,1.28-2.62c1.03-0.45,2.42-0.61,3.54-0.46
									c-0.03,0-3.77,0.41-4.07,1.57c-0.3,1.16,1.69,2.33,3.56,1.58c1.87-0.75,5.11-2.1,4.74-3.68
									C61.33,65.26,58.58,67.71,55.63,68.34z"/>
							</g>
						</g>
					</g>
					<path class="st21" d="M54.15,70.32c0.11,0.23-0.26,0.63-0.82,0.89c-0.56,0.26-1.1,0.27-1.21,0.03
						c-0.11-0.24,0.26-0.63,0.82-0.89C53.5,70.1,54.04,70.08,54.15,70.32z"/>
				</g>
				<g>
					<path class="st22" d="M54.73,22.38c-0.03-1.12-0.28-2.26-0.78-3.34c-1.98-4.34-7.1-6.25-11.43-4.27
						c-1.89,0.86-3.32,2.32-4.16,4.05C35.88,16.29,32,15.44,28.6,17c-3.4,1.55-5.31,5.03-5.02,8.56c-1.86-0.49-3.9-0.37-5.79,0.49
						c-4.33,1.98-6.25,7.09-4.27,11.43c0.49,1.08,1.19,2.02,2.01,2.78c-2.13,2.47-2.76,6.04-1.31,9.21
						c1.98,4.33,7.09,6.24,11.43,4.27c2.7-1.23,4.46-3.68,4.93-6.4c3.54,2.23,8.09,2.69,12.19,0.83c4.11-1.88,6.76-5.66,7.37-9.81
						c2.37,1.47,5.4,1.76,8.13,0.52c4.33-1.98,6.25-7.09,4.27-11.43C61.1,24.26,57.99,22.39,54.73,22.38z"/>
					<path class="st23" d="M40.31,42.23c-3.46,1.58-10.73,1.43-10.73,1.43s-10.12,8.84-12.54,4.87c-3.9-6.38,3.35-7.83,3.35-7.83
						s-10.74-6.06-1.94-13.22c2.72-2.22,6.89,0.17,6.89,0.17s-2.62-6.1,3.91-9.22c5.85-2.79,10.31,5.99,10.31,5.99
						s-0.09-5.84,3.72-7.97c3.39-1.89,7.6-0.29,9.22,3.24c0.39,0.87,0.61,1.78,0.63,2.72l0.04,1.53c0,0,4.23-1.59,4.22,3.16
						c-0.02,7.52-8.67,8.3-8.67,8.3S43.8,40.65,40.31,42.23z"/>
					<g class="st24">
						<path class="st25" d="M53.38,35.4c0,0,3.94,0.61,7.5-4.39c0,0,0.05,4.07-3.22,6.34C57.65,37.35,53.35,37.62,53.38,35.4z"/>
						<path class="st25" d="M26.28,47.76c0,0-2.11,3.38-8.23,2.79c0,0,3.03,2.7,6.9,1.72C24.95,52.26,27.97,49.19,26.28,47.76z"/>
					</g>
					<g>
						<path class="st8" d="M55.76,32.77l5.29,15.43c-7.03-0.59-12.41,0.6-17.23,2.85c-4.71,2.19-8.88,5.36-12.94,10.92l-7.77-13.21
							c0,0,9.19-3.58,8.78-11.34c0,0,7.59,0.8,9.95-4.54C41.85,32.87,47.79,37.73,55.76,32.77z"/>
					</g>
					<path class="st26" d="M17.78,29.6c0,0,1.23,7.75,6.74,9.38c0,0-3.59,2.25-6.29-0.98C15.25,34.44,16.13,31.18,17.78,29.6z"/>
					<path class="st10" d="M32.12,34.46c0,0,6.49-4.42,5.61-10.1c0,0,3.56,2.28,1.8,6.11C37.58,34.69,34.26,35.28,32.12,34.46z"/>
					<path class="st26" d="M47.95,31.93c0,0,6.59-1.9,7.42-6.85c0,0,2.34,2.87-0.17,5.56C52.42,33.61,49.5,33.19,47.95,31.93z"/>
					<path class="st27" d="M30.88,61.96c4.06-5.56,8.23-8.73,12.94-10.92c4.82-2.25,10.21-3.44,17.23-2.85l-5.29-15.43
						c-7.97,4.97-13.91,0.1-13.91,0.1c-2.37,5.34-9.95,4.54-9.95,4.54c0.25,4.78-3.13,7.97-5.77,9.72c0,0,6.61-1.69,8.8-6.58
						c0,0,5.98-1.67,7.8-4.49c0,0,5.73,2.78,10.68,0.83l2.07,6.9C55.47,43.78,37.71,45.83,30.88,61.96z"/>
					<path class="st25" d="M42.31,31.73c0.64-1.98,0.57-4.2-0.36-6.24c-0.1-0.21-0.21-0.42-0.32-0.62c0.74,2.05,0.66,4.22-0.1,6.12
						l0,0c0,0,0,0.01,0,0.01c-0.06,0.15-0.13,0.31-0.2,0.46c-0.08,0.16-0.18,0.32-0.28,0.49c0.01,0.01,0.01,0.02,0.02,0.02
						c-0.86,1.57-2.22,2.88-3.97,3.68c-1.75,0.81-3.64,0.96-5.39,0.58c0-0.01,0-0.02,0-0.03c-0.19-0.03-0.38-0.07-0.54-0.11
						c-2.14-0.61-4.03-2.04-5.18-4.1c0.08,0.22,0.16,0.43,0.26,0.65c0.93,2.04,2.56,3.55,4.48,4.36c-0.01,2.22-0.66,7.33-6.21,9.65
						c0.8-0.11,1.59-0.34,2.36-0.69c3.4-1.55,5.31-5.03,5.02-8.56c1.86,0.49,3.9,0.37,5.79-0.49c1.89-0.86,3.32-2.32,4.16-4.05
						c2.47,2.53,6.35,3.37,9.75,1.82c0.77-0.35,1.46-0.8,2.07-1.33C48.28,36.03,44,33.17,42.31,31.73z"/>
				</g>
			</g>
			<g>
				<path class="st28" d="M53.78,61.46c0,0-0.53-2.35,1.55-2.88c2.07-0.54,2.84,0.86,2.57,1.02c-0.28,0.15-0.75-0.61-1.93-0.42
					c-0.98,0.16-1.36,0.42-1.55,1.05C54.22,60.86,54.23,61.66,53.78,61.46z"/>
				<path class="st28" d="M46.01,65c0,0-1.43-1.93-3.19-0.72c-1.76,1.21-1.21,2.71-0.91,2.61c0.3-0.11,0.04-0.97,0.95-1.73
					c0.76-0.64,1.21-0.75,1.8-0.48C45.27,64.94,45.87,65.47,46.01,65z"/>
			</g>
		</g>
		<g>
			<g>
				<path class="st3" d="M60.16,88.31c0,0,3.77,1.56,3.66-1.36c-0.03-0.74,1.77-0.35,0.98,1.86c0,0,1.33-0.5,2-0.83
					c0.67-0.33,1.23,0.27,0.77,0.79c-0.46,0.52-1.98,1.04-1.98,1.04s1.58,0.36,1.88,0.26c0.3-0.11,0.94,0.29,0.44,0.81
					c-0.5,0.52-2.23,0.26-2.23,0.26s1.6,0.9,2.05,0.99c0.44,0.09,0.17,1.07-0.63,0.8c-0.8-0.27-1.73-0.61-1.73-0.61
					s0.86,1.09,1.2,1.41c0.34,0.32-0.17,1.2-1.06,0.12c-0.89-1.07-2.46-2.06-5.62-2.1C59.9,91.75,59.16,90.3,60.16,88.31z"/>
				<g class="st4">
					<path class="st3" d="M63.39,92.01c0.81,0.47,1.4,1.05,1.76,1.45h0c-0.94-0.91-2.48-1.67-5.26-1.71c0,0-0.74-1.45,0.27-3.45
						c0,0,1.35,0.56,2.41,0.38l0,0c0,0-2.34,0.77-1.33,1.86C62.26,91.63,62.58,91.55,63.39,92.01z"/>
					<path class="st3" d="M66.67,93.99c0,0.34-0.46,0.7-1.16-0.14c-0.03-0.05-0.07-0.08-0.11-0.13
						C65.8,94.13,66.38,94.59,66.67,93.99z"/>
				</g>
			</g>
			<g>
				<path class="st8" d="M46.84,80.66c0,0,6.7,5.27,11.3,5.77c4.61,0.5,4.08,0.41,4.24,1.62c0.16,1.2,0.23,5.63-3.1,5.07
					c-3.34-0.56-12.48-3.62-15.68-8.76C40.4,79.22,45.28,79.14,46.84,80.66z"/>
				<path class="st9" d="M62.05,87.04c0.14,1.6-0.17,2.91-1.92,4.24c-1.76,1.33-8.16-1.36-13.32-5.03c-5.16-3.66-2-6.43-2-6.43
					c-1.75-0.15-3.42,0.98-1.2,4.54c3.2,5.14,12.34,8.2,15.68,8.76c3.33,0.55,3.27-3.88,3.1-5.07
					C62.31,87.51,62.37,87.23,62.05,87.04z"/>
				<path class="st10" d="M61.23,87.4c0,0-1.08,1.08-2.31,0.88c-1.23-0.21-6.6-1.02-10.75-5.32c0,0,0.1-0.61,1.62,0.54
					C51.31,84.66,57.51,87.5,61.23,87.4z"/>
			</g>
		</g>
	</g>
	<g>
		<path class="st29" d="M128.1,75.92c3.2,0,6.1,0.93,8.7,2.8c2.6,1.87,4.5,4.3,5.7,7.3c1.2,2.93,1.8,6.26,1.8,10
			c0,9.2-3.07,18.03-9.19,26.49c-0.74,1.07-1.67,2.25-2.8,3.55c-1.13,1.3-2.43,2.71-3.9,4.25c-3.47,3.53-5.8,5.5-7,5.9
			c-0.8,0.33-1.37,0.16-1.7-0.5c-0.27-0.8-0.04-1.53,0.7-2.2c2.86-3.26,4.76-5.56,5.7-6.9c2.86-4.06,4.93-8.53,6.2-13.39
			c1.26-4.86,1.9-9.83,1.9-14.89c0-1.87-0.1-3.6-0.3-5.2c-0.67-5.33-2.73-8.66-6.2-9.99c-1-0.33-1.97-0.5-2.9-0.5
			c-1.67,0-3.03,0.43-4.1,1.3c-1.67,1.2-2.63,2.8-2.9,4.8c-0.07,0.33-0.1,1.13-0.1,2.4c0,1.2,0,2.87,0,5v12.89
			c0,2.6,0.5,4.3,1.5,5.1c0.4,0.27,1.33,0.54,2.8,0.8c1,0.33,1.5,1.07,1.5,2.2c0,1.07-0.57,1.77-1.7,2.1c-0.27,0.07-1.5,0.1-3.7,0.1
			h-10.5c-2.13,0-3.33-0.03-3.6-0.1c-1.27-0.27-1.9-0.97-1.9-2.1c0-1.27,0.5-2.06,1.5-2.4c1.66-0.47,2.53-0.73,2.6-0.8
			c1-0.8,1.5-2.43,1.5-4.9v-13.9c0-3.46-0.1-5.66-0.3-6.6c-0.53-2.53-1.8-4.37-3.8-5.5c-1-0.6-2.23-0.9-3.7-0.9
			c-1.6,0-3.03,0.37-4.3,1.1c-2.4,1.4-3.9,3.46-4.5,6.2c-0.27,1.13-0.4,3.83-0.4,8.1v11.5c0,2.4,0.6,4,1.8,4.8
			c0.2,0.07,1.37,0.37,3.5,0.9c1.2,0.33,1.8,1.13,1.8,2.4c0,1.13-0.6,1.83-1.8,2.1c-0.27,0.07-1.43,0.1-3.5,0.1H79.02
			c-2.07,0-3.23-0.03-3.5-0.1c-1.27-0.27-1.9-0.97-1.9-2.1c0-1.33,0.63-2.13,1.9-2.4c2.06-0.47,3.2-0.8,3.4-1
			c1.27-0.67,1.9-2.23,1.9-4.7V85.02c0-1.67-0.43-2.83-1.3-3.5c-0.53-0.4-1.53-0.7-3-0.9c-1.93-0.33-2.9-1.23-2.9-2.7
			c0-1.46,1.1-2.16,3.3-2.1c1,0.07,1.87,0.12,2.6,0.15c0.73,0.03,1.36,0.02,1.9-0.05c2.26-0.06,4.46-0.7,6.6-1.9
			c0.8-0.27,1.53-0.27,2.2,0c0.73,0.4,1.1,1.03,1.1,1.9c0,0.27-0.1,0.98-0.3,2.15c-0.2,1.17-0.3,2.25-0.3,3.25
			c5.13-3.93,10-5.9,14.59-5.9c1.73,0,3.33,0.37,4.8,1.1c1.67,0.8,3.53,2.73,5.6,5.8C119.57,78.06,123.7,75.92,128.1,75.92z"/>
		<path class="st29" d="M169.08,76.02c0.47,0,0.93,0,1.4,0c5.6,0,9.86,1.7,12.8,5.1c1.8,2.13,2.7,4.63,2.7,7.5
			c0,2.73-1.1,4.83-3.3,6.3c-1.13,0.73-3.47,1.7-7,2.9l-3.9,1.3c-3,1-5,1.8-6,2.4c-2.13,1.2-3.3,2.73-3.5,4.6
			c-0.2,2,0.76,3.97,2.9,5.9c1.87,1.67,4.06,2.5,6.6,2.5c1.6,0,3.5-0.37,5.7-1.1c0.33-0.13,0.87-0.38,1.6-0.75
			c0.73-0.36,1.63-0.85,2.7-1.45c1.73-0.93,2.83-1.4,3.3-1.4c1,0.14,1.4,0.73,1.2,1.8c-0.33,1.8-1.7,3.53-4.1,5.2
			c-4.06,2.73-8.33,4.1-12.79,4.1c-2.87,0-5.5-0.53-7.9-1.6c-7.4-3.26-11.5-9.16-12.29-17.69c-0.33-3.46,0.23-7.1,1.7-10.89
			c1.73-4.73,4.3-8.36,7.7-10.89c3-2.2,6.03-3.43,9.1-3.7C168.14,76.06,168.61,76.02,169.08,76.02z M165.98,96.11
			c0.93-0.33,1.85-0.7,2.75-1.1c0.9-0.4,1.82-0.77,2.75-1.1c2.26-1.13,3.73-2.46,4.4-4c0.27-0.53,0.4-1.13,0.4-1.8
			c0-1.07-0.4-2.16-1.2-3.3c-1.67-2.4-3.7-3.63-6.1-3.7c-3-0.13-5.38,0.88-7.15,3.05c-1.77,2.17-2.65,5.55-2.65,10.15
			c0,2.2,0.2,4.13,0.6,5.8c1.8-1.66,3.3-2.76,4.5-3.3L165.98,96.11z"/>
		<path class="st29" d="M205.36,120.4c-2.47,0-4.73-0.53-6.8-1.6c-4.4-2.46-6.36-6.13-5.9-10.99c0.27-3.26,1.53-5.8,3.8-7.6
			c1.86-1.53,4.86-2.97,8.99-4.3l3.2-1c3.8-1.2,6.1-2,6.9-2.4c3.07-1.47,4.9-3.36,5.5-5.7c0.46-1.93-0.07-3.63-1.6-5.1
			c-1.73-1.67-3.93-2.13-6.6-1.4c-2.33,0.6-4.33,1.83-6,3.7c-0.47,0.53-0.9,1.06-1.3,1.6c-0.4,0.53-0.83,1.07-1.3,1.6
			c-1.13,1.33-2.23,2.2-3.3,2.6c-1.53,0.53-2.84,0.37-3.9-0.5c-1.53-1.13-2.14-2.57-1.8-4.3c0.4-2.6,3.4-5.16,9-7.7
			c3.06-1.4,6.76-2.1,11.09-2.1c4.2,0,7.43,0.83,9.69,2.5c2.66,1.93,4.33,4.5,5,7.7c0.4,1.6,0.6,4.23,0.6,7.9v12.29
			c0,3.2,0.03,4.97,0.1,5.3c0.33,1.33,1.07,2.33,2.2,3c0.53,0.33,1.46,0.67,2.8,1c0.93,0.2,1.5,0.5,1.7,0.9
			c0.47,0.6,0.47,1.23,0,1.9c-0.47,0.67-1.2,1.07-2.2,1.2c-0.6,0.07-1.2,0.12-1.8,0.15c-0.6,0.03-1.17,0.08-1.7,0.15
			c-1.13,0.13-2.1,0.27-2.9,0.4c-0.8,0.13-1.43,0.27-1.9,0.4c-2.8,0.93-4.46,1.23-5,0.9c-0.6-0.27-0.9-2.57-0.9-6.9
			C215.52,118.27,210.29,120.4,205.36,120.4z M214.46,98.81c-4.33,1.47-6.9,2.43-7.7,2.9c-2.4,1.33-3.63,3.1-3.7,5.3
			c-0.2,2.6,0.77,4.6,2.9,6c1.13,0.73,2.46,1.1,4,1.1c1.93,0,3.66-0.47,5.2-1.4c2.93-1.8,4.8-4.6,5.6-8.4
			c0.27-1.33,0.4-4.43,0.4-9.3c-1.4,1.33-3.13,2.37-5.2,3.1L214.46,98.81z"/>
		<path class="st29" d="M247.84,55.63c-0.4,0-0.7,0.04-0.9,0.1c-0.73,0.2-1.43,0.1-2.1-0.3c-0.67-0.4-0.9-1.1-0.7-2.1
			c0.07-0.73,0.7-1.43,1.9-2.1l15.39-8.2c1.13-0.6,2.06-0.43,2.8,0.5c0.33,0.33,0.47,0.73,0.4,1.2c0,0.47-0.17,0.87-0.5,1.2
			c-0.73,0.67-1.35,1.27-1.85,1.8c-0.5,0.54-0.89,0.97-1.15,1.3c-0.87,1.27-1.3,2.87-1.3,4.8v55.18c0,2.4,0.67,4,2,4.8
			c0.2,0.14,1.43,0.43,3.7,0.9c1.33,0.33,2,1.13,2,2.4c0,1.13-0.64,1.83-1.9,2.1c-0.27,0.07-1.43,0.1-3.5,0.1h-14.29
			c-2.13,0-3.33-0.03-3.6-0.1c-1.27-0.27-1.9-0.97-1.9-2.1c0-1.27,0.67-2.06,2-2.4c2.2-0.47,3.4-0.8,3.6-1c1.33-0.73,2-2.3,2-4.7
			V59.03C249.94,56.76,249.24,55.63,247.84,55.63z"/>
	</g>
	<path class="st11" d="M304.11,75.42c2.13,0,4.2,0.4,6.2,1.2c6.06,2.4,9.96,6.9,11.69,13.49c0.53,2,0.8,4.03,0.8,6.1
		c0,6.33-1.93,11.83-5.8,16.49c-2.2,2.73-5.13,4.83-8.79,6.3c-3.2,1.2-6.2,1.7-9,1.5c-2.07-0.13-4.33-0.64-6.8-1.5
		c-3.2-1.13-5.4-1.7-6.6-1.7c-0.53,0-1.4,0.4-2.6,1.2c-0.47,0.47-1.37,1-2.7,1.6c-1.47,0.2-2.2-0.27-2.2-1.4
		c0.4-1.07,0.7-2.1,0.9-3.1c0.2-1,0.4-2.18,0.6-3.55c0.2-1.37,0.3-2.85,0.3-4.45V59.03c0-2.27-0.7-3.4-2.1-3.4
		c-0.4,0-0.7,0.04-0.9,0.1c-0.73,0.2-1.43,0.1-2.1-0.3c-0.67-0.4-0.9-1.1-0.7-2.1c0.06-0.73,0.7-1.43,1.9-2.1l15.39-8.2
		c1.13-0.6,2.06-0.43,2.8,0.5c0.33,0.33,0.47,0.73,0.4,1.2c0,0.47-0.17,0.87-0.5,1.2c-0.73,0.67-1.35,1.27-1.85,1.8
		c-0.5,0.54-0.89,0.97-1.15,1.3c-0.87,1.27-1.3,2.87-1.3,4.8v26.29C295.15,76.99,299.85,75.42,304.11,75.42z M290.42,108.11
		c0.6,2.73,2.17,4.8,4.7,6.2c1.27,0.67,2.83,1,4.7,1c2.53,0,4.6-0.5,6.2-1.5c4.4-2.8,6.6-7.76,6.6-14.89c0-0.53-0.02-1.01-0.05-1.45
		c-0.04-0.43-0.09-0.85-0.15-1.25c-0.8-6.53-3.63-10.93-8.5-13.19c-1.2-0.53-2.43-0.8-3.7-0.8c-3.13,0-6.53,1.53-10.2,4.6v12.9
		C290.02,104.24,290.15,107.04,290.42,108.11z"/>
	<path class="st11" d="M329.7,119.2c-1.27-0.27-1.9-0.97-1.9-2.1c0-1.27,0.66-2.06,2-2.4c2.33-0.53,3.6-0.83,3.8-0.9
		c1.33-0.8,2-2.4,2-4.8V85.02c0-1.67-0.43-2.83-1.3-3.5c-0.53-0.4-1.53-0.7-3-0.9c-1.93-0.33-2.9-1.23-2.9-2.7
		c0-1.46,1.1-2.16,3.3-2.1c1,0.07,1.87,0.12,2.6,0.15c0.73,0.03,1.37,0.02,1.9-0.05c2.26-0.06,4.46-0.7,6.6-1.9
		c0.8-0.27,1.53-0.27,2.2,0c0.73,0.4,1.1,1.03,1.1,1.9c0,0.2-0.1,0.88-0.3,2.05c-0.2,1.17-0.3,2.25-0.3,3.25v27.79
		c0,2.46,0.67,4.06,2,4.8c0.2,0.14,1.5,0.43,3.9,0.9c1.33,0.33,2,1.13,2,2.4c0,1.13-0.63,1.83-1.9,2.1c-0.27,0.07-1.47,0.1-3.6,0.1
		H333.3C331.17,119.3,329.97,119.27,329.7,119.2z M335.15,57.03c1.23-1.2,2.71-1.8,4.45-1.8c1.8,0,3.32,0.6,4.55,1.8
		c1.23,1.2,1.85,2.7,1.85,4.5c0,1.74-0.62,3.23-1.85,4.5c-1.23,1.27-2.75,1.9-4.55,1.9c-1.73,0-3.22-0.6-4.45-1.8
		c-1.24-1.2-1.85-2.7-1.85-4.5C333.3,59.76,333.91,58.23,335.15,57.03z"/>
	<path class="st11" d="M363.68,55.63c-0.4,0-0.7,0.04-0.9,0.1c-0.73,0.2-1.43,0.1-2.1-0.3c-0.67-0.4-0.9-1.1-0.7-2.1
		c0.06-0.73,0.7-1.43,1.9-2.1l15.39-8.2c1.13-0.6,2.06-0.43,2.8,0.5c0.33,0.33,0.47,0.73,0.4,1.2c0,0.47-0.17,0.87-0.5,1.2
		c-0.73,0.67-1.35,1.27-1.85,1.8c-0.5,0.54-0.89,0.97-1.15,1.3c-0.87,1.27-1.3,2.87-1.3,4.8v55.18c0,2.4,0.66,4,2,4.8
		c0.2,0.14,1.43,0.43,3.7,0.9c1.33,0.33,2,1.13,2,2.4c0,1.13-0.64,1.83-1.9,2.1c-0.27,0.07-1.43,0.1-3.5,0.1h-14.3
		c-2.13,0-3.33-0.03-3.6-0.1c-1.27-0.27-1.9-0.97-1.9-2.1c0-1.27,0.67-2.06,2-2.4c2.2-0.47,3.4-0.8,3.6-1c1.33-0.73,2-2.3,2-4.7
		V59.03C365.78,56.76,365.08,55.63,363.68,55.63z"/>
	<path class="st11" d="M393.87,55.63c-0.4,0-0.7,0.04-0.9,0.1c-0.73,0.2-1.43,0.1-2.1-0.3c-0.67-0.4-0.9-1.1-0.7-2.1
		c0.06-0.73,0.7-1.43,1.9-2.1l15.39-8.2c1.13-0.6,2.06-0.43,2.8,0.5c0.33,0.33,0.47,0.73,0.4,1.2c0,0.47-0.17,0.87-0.5,1.2
		c-0.73,0.67-1.35,1.27-1.85,1.8c-0.5,0.54-0.88,0.97-1.15,1.3c-0.87,1.27-1.3,2.87-1.3,4.8v55.18c0,2.4,0.66,4,2,4.8
		c0.2,0.14,1.43,0.43,3.7,0.9c1.33,0.33,2,1.13,2,2.4c0,1.13-0.64,1.83-1.9,2.1c-0.27,0.07-1.43,0.1-3.5,0.1h-14.29
		c-2.13,0-3.33-0.03-3.6-0.1c-1.27-0.27-1.9-0.97-1.9-2.1c0-1.27,0.67-2.06,2-2.4c2.2-0.47,3.4-0.8,3.6-1c1.33-0.73,2-2.3,2-4.7
		V59.03C395.97,56.76,395.27,55.63,393.87,55.63z"/>
</g>
</svg>
